<?xml version="1.0" encoding="UTF-8" standalone="no"?>
<!-- Created with Inkscape (http://www.inkscape.org/) -->

<svg
   xmlns:dc="http://purl.org/dc/elements/1.1/"
   xmlns:cc="http://creativecommons.org/ns#"
   xmlns:rdf="http://www.w3.org/1999/02/22-rdf-syntax-ns#"
   xmlns:svg="http://www.w3.org/2000/svg"
   xmlns="http://www.w3.org/2000/svg"
   xmlns:sodipodi="http://sodipodi.sourceforge.net/DTD/sodipodi-0.dtd"
   xmlns:inkscape="http://www.inkscape.org/namespaces/inkscape"
   width="330"
   height="76"
   id="svg2"
   version="1.1"
   inkscape:version="0.48.4 r9939"
   sodipodi:docname="bjgug-logo.svg"
   inkscape:export-filename="./bjgug-logo.png"
   inkscape:export-xdpi="90"
   inkscape:export-ydpi="90">
  <defs
     id="defs4" />
  <sodipodi:namedview
     id="base"
     pagecolor="#ffffff"
     bordercolor="#666666"
     borderopacity="1.0"
     inkscape:pageopacity="0.0"
     inkscape:pageshadow="2"
     inkscape:zoom="1"
     inkscape:cx="326.27709"
     inkscape:cy="31.327046"
     inkscape:document-units="px"
     inkscape:current-layer="layer1"
     showgrid="false"
     inkscape:window-width="1280"
     inkscape:window-height="749"
     inkscape:window-x="0"
     inkscape:window-y="25"
     inkscape:window-maximized="1" />
  <metadata
     id="metadata7">
    <rdf:RDF>
      <cc:Work
         rdf:about="">
        <dc:format>image/svg+xml</dc:format>
        <dc:type
           rdf:resource="http://purl.org/dc/dcmitype/StillImage" />
        <dc:title />
      </cc:Work>
    </rdf:RDF>
  </metadata>
  <g
     inkscape:label="Layer 1"
     inkscape:groupmode="layer"
     id="layer1"
     transform="translate(0,-976.3622)">
    <g
       id="g3989"
       transform="translate(-1049.8298,413.8826)">
      <path
         inkscape:connector-curvature="0"
         id="path2929-0"
         d="m 390.78125,55.84375 c -8.55645,0.311059 -17.2917,4.48021 -24.625,12.34375 -10.67565,11.337561 -24.88099,45.11852 -29,85.125 -1.12466,10.92334 -1.78795,18.82616 -2,29.3125 -0.35053,38.6599 4.463,111.7017 34.40625,172.6875 -0.066,-0.16244 -1.46539,-19.05594 -1.53125,-19.21875 -20.33198,-50.27364 -31.53245,-118.78178 -26.375,-170.5625 0.74324,-8.90366 1.62386,-14.3085 2.90625,-23.34375 4.6831,-32.99528 16.72181,-61.67171 25.59375,-71.09375 12.28946,-13.69929 29.94621,-14.795092 41.4375,-0.96875 4.86175,5.16471 6.99246,12.07053 7.25,18.78125 -1.10928,21.50506 -23.95178,34.8823 -49.21875,20.9375 22.04139,21.28261 52.2277,5.25206 53.5625,-20.625 -0.30993,-8.075031 -2.96235,-16.41031 -8.8125,-22.625 -6.67158,-7.511056 -15.0373,-11.061059 -23.59375,-10.75 z"
         style="fill:none;stroke:#000000;stroke-width:1;stroke-linecap:butt;stroke-linejoin:miter;stroke-miterlimit:4;stroke-opacity:1;stroke-dasharray:none;marker-end:none" />
      <g
         transform="translate(-116.92913,-552.38935)"
         id="g4251">
        <path
           inkscape:connector-curvature="0"
           id="path2496"
           d="m 512.63567,961.03406 c -14.39124,-12.84152 -20.91415,-28.05795 -25.15488,-47.732 -10.96223,-50.85713 14.90052,-95.6864 56.16623,-106.35652 14.73555,-3.81019 34.82516,-2.69147 52.15348,2.34709 13.26761,3.85785 18.97592,4.11046 37.15853,16.33269 16.48832,12.68503 19.48274,14.57349 22.31276,24.07541 4.04425,13.57876 0.73377,20.66874 -9.50244,31.06427 -7.89752,8.02044 -23.63642,14.58146 -55.48732,13.74313 -26.10685,-0.68718 -44.52082,2.74418 -55.23451,9.38723 -10.23364,6.3454 -3.03083,35.17072 11.98459,32.11229 3.23286,-0.65849 5.02211,-1.67354 6.19998,-2.53345 2.94688,-2.15138 3.23152,-2.68096 8.71855,-8.64258 2.88477,-3.13428 6.98765,-5.68265 8.60353,-6.23078 5.85371,-1.98561 17.26065,1.00364 26.59964,7.23918 7.95429,5.31039 8.77632,7.65069 9.9471,13.08233 1.05506,4.89479 -3.49791,10.26106 -6.31127,12.75177 -8.77304,7.76692 -20.02935,14.0487 -38.2741,18.18092 -11.21951,2.54109 -12.03417,1.88353 -26.25672,0.4352 -9.09019,-0.92568 -18.74443,-4.01048 -23.62315,-9.25618 l 0,0 z"
           style="fill:none;stroke:#000000;stroke-width:1;stroke-miterlimit:4;stroke-opacity:1;stroke-dasharray:none"
           sodipodi:nodetypes="cssscsssssssssssssc" />
        <path
           inkscape:connector-curvature="0"
           id="path2496-7"
           d="m 534.06358,779.9925 c -0.91804,-8.74147 1.94229,-21.89086 5.72142,-26.30256 3.40156,-3.97067 15.42955,-4.36858 19.29449,-0.63808 6.22665,6.01005 3.08417,20.54011 -6.96415,32.20022 -9.98895,11.59117 -16.4808,9.69973 -18.05176,-5.25958 z"
           style="fill:none;stroke:#000000;stroke-width:1;stroke-miterlimit:4;stroke-opacity:1;stroke-dasharray:none"
           sodipodi:nodetypes="csssc" />
        <path
           inkscape:connector-curvature="0"
           id="path2496-8"
           d="m 654.63716,823.84985 c -5.01846,-9.55043 7.71351,-26.90551 22.67525,-37.33338 16.65019,-11.60451 33.75549,-14.75441 51.27771,-5.45124 14.21549,7.54757 18.11282,18.54222 9.86273,27.82385 -11.82968,13.30881 -43.5853,25.52609 -62.75572,24.1439 -12.36278,-0.89139 -17.99289,-3.34637 -21.05997,-9.18313 z"
           style="fill:none;stroke:#000000;stroke-width:1.01529181;stroke-miterlimit:4;stroke-opacity:1;stroke-dasharray:none"
           sodipodi:nodetypes="cssssc" />
        <path
           inkscape:connector-curvature="0"
           id="path2496-8-7"
           d="m 577.09792,781.93313 c -2.02156,-5.32248 0.34242,-20.84236 4.35497,-28.59098 4.55992,-8.80568 13.96409,-14.00516 21.37491,-11.81802 12.27086,3.62151 12.20572,13.08077 1.2187,29.45271 -11.2491,16.7625 -22.64233,22.29384 -26.94858,10.95629 z"
           style="fill:none;stroke:#000000;stroke-width:1;stroke-miterlimit:4;stroke-opacity:1;stroke-dasharray:none"
           sodipodi:nodetypes="csssc" />
        <path
           inkscape:connector-curvature="0"
           id="path2496-8-1"
           d="m 619.04751,790.90645 c -4.30874,-16.49729 16.71968,-46.19491 31.38841,-44.58403 13.97846,1.53507 19.61316,13.04263 12.56416,25.65952 -5.0951,9.11966 -23.80777,23.5191 -33.15259,24.94999 -8.25642,1.26425 -9.00516,0.84652 -10.79998,-6.02548 z"
           style="fill:none;stroke:#000000;stroke-width:1.01097834;stroke-miterlimit:4;stroke-opacity:1;stroke-dasharray:none"
           sodipodi:nodetypes="cssss" />
      </g>
      <g
         transform="translate(-116.92913,-552.38935)"
         id="g4300">
        <path
           inkscape:connector-curvature="0"
           id="path2496-2"
           d="m 487.04378,975.82597 c 4.76715,-18.08831 2.03654,-33.92339 -4.83072,-52.16797 -17.75177,-47.16196 -61.67,-69.84581 -100.06293,-56.57778 -13.70971,4.73788 -29.11416,16.32831 -40.28065,29.63643 -8.54973,10.18951 -12.96076,13.4298 -21.06739,33.03058 -6.51742,19.0761 -7.91722,22.20299 -5.22276,31.43023 3.85052,13.18623 10.17583,17.18842 23.73328,20.19492 10.45994,2.31959 26.40013,-0.71604 51.3099,-18.3318 20.41748,-14.43893 36.85718,-21.44043 48.84113,-21.73759 11.44698,-0.28385 20.72107,26.9732 7.18,32.47085 -2.91544,1.18366 -4.8677,1.31 -6.25267,1.23736 -3.46503,-0.18172 -3.96723,-0.46079 -11.43718,-2.3887 -3.92727,-1.01358 -8.51888,-0.90333 -10.09011,-0.4897 -5.69191,1.49851 -13.21313,9.99281 -17.39878,20.02601 -3.56535,8.54499 -3.00118,10.88419 -1.10525,15.92119 1.70854,4.5391 8.12526,6.4798 11.66069,7.0083 11.02468,1.648 23.25236,0.7688 39.92225,-5.5732 10.25107,-3.8999 10.55704,-4.8674 21.12103,-13.60637 6.75187,-5.58538 12.8286,-13.22547 13.98016,-20.08276 l 0,0 z"
           style="fill:none;stroke:#000000;stroke-width:1;stroke-miterlimit:4;stroke-opacity:1;stroke-dasharray:none"
           sodipodi:nodetypes="cssscsssssssssssssc" />
        <path
           inkscape:connector-curvature="0"
           id="path2496-7-6"
           d="m 372.72324,841.91661 c -3.81978,-7.8178 -12.94055,-17.25588 -18.24411,-18.87891 -4.77355,-1.46065 -14.5515,4.79102 -15.68501,10.0287 -1.82616,8.43821 8.23782,18.87724 22.30293,23.134 13.98199,4.23157 18.16306,-0.9052 11.62619,-14.28379 l 0,0 z"
           style="fill:none;stroke:#000000;stroke-width:0.97511619;stroke-miterlimit:4;stroke-opacity:1;stroke-dasharray:none"
           sodipodi:nodetypes="csssc" />
        <path
           inkscape:connector-curvature="0"
           id="path2496-8-0"
           d="m 303.64288,942.60966 c -0.97813,-10.73952 -20.14311,-18.29292 -37.47646,-18.82867 -19.28936,-0.59607 -34.5399,6.13218 -43.63988,23.50991 -7.38263,14.09832 -4.76064,25.43267 6.63551,28.68346 16.34077,4.66126 47.96868,-2.49927 62.50333,-14.15069 9.37321,-7.5139 12.57525,-12.6505 11.9775,-19.21401 l 0,0 z"
           style="fill:none;stroke:#000000;stroke-width:0.99002749;stroke-miterlimit:4;stroke-opacity:1;stroke-dasharray:none"
           sodipodi:nodetypes="cssssc" />
        <path
           inkscape:connector-curvature="0"
           id="path2496-8-7-1"
           d="m 340.49847,868.10756 c -1.16197,-5.56076 -11.12172,-17.2543 -18.34802,-21.54201 -8.21208,-4.87266 -18.40163,-4.07553 -23.16002,1.81178 -7.87893,9.74825 -2.90318,17.62849 14.36156,25.31442 17.67658,7.86929 29.62159,6.26098 27.14648,-5.58419 z"
           style="fill:none;stroke:#000000;stroke-width:0.97511619;stroke-miterlimit:4;stroke-opacity:1;stroke-dasharray:none"
           sodipodi:nodetypes="csssc" />
        <path
           inkscape:connector-curvature="0"
           id="path2496-8-1-4"
           d="m 312.29365,898.56589 c -5.15897,-16.16442 -37.35031,-29.50472 -48.18387,-20.12634 -10.32377,8.93705 -8.81723,21.65174 3.35933,28.35114 8.80137,4.84242 31.18674,6.64831 39.36736,2.72997 7.22783,-3.46196 7.60616,-4.22143 5.45718,-10.95477 l 0,0 z"
           style="fill:none;stroke:#000000;stroke-width:0.98582137;stroke-miterlimit:4;stroke-opacity:1;stroke-dasharray:none"
           sodipodi:nodetypes="cssss" />
      </g>
      <path
         inkscape:connector-curvature="0"
         id="path3299"
         d="m 194.0625,159.125 c -16.72438,-0.23763 -32.66536,9.5302 -35.5,26.53125 -0.39871,2.39116 -1.16256,8.35507 -0.5,11.125 0.26326,4.0785 2.2904,10.37991 4.90625,13.90625 17.20942,23.19934 47.6391,14.25137 55,-5 0.58846,-1.53902 1.27761,-3.25589 2,-7.59375 0.61479,-3.69176 0.1695,-6.39112 0.1875,-7.125 -0.26869,1.41791 -2.1122,7.86443 -4.46875,13.1875 -7.06345,15.95515 -33.15525,23.92421 -46.75,6.71875 -3.08238,-3.90106 -5.5717,-7.62304 -6.4375,-14.15625 -0.64217,-2.68474 0.25257,-8.83564 0.78125,-11.125 4.3144,-18.68123 22.82383,-24.72515 41.28125,-18.90625 16.37336,4.68456 40.82438,22.8677 70.53125,55.28125 7.29304,7.95754 13.49092,15.47909 18.1875,21.28125 22.00165,29.15761 42.90706,64.88707 50.6875,92.96875 l 7,8.21875 1.3125,1.53125 C 347.1204,318.32601 322.62406,270.80214 295.5,237.8125 290.65439,231.82622 284.2432,224.08505 276.71875,215.875 246.06924,182.43292 220.2679,165.1457 203.375,160.3125 c -3.0725,-0.74756 -6.21539,-1.14349 -9.3125,-1.1875 z"
         style="fill:none;stroke:#000000;stroke-width:1;stroke-linecap:butt;stroke-linejoin:miter;stroke-miterlimit:4;stroke-opacity:1;stroke-dasharray:none" />
    </g>
    <g
       id="g3875"
       transform="translate(-0.99999939,-1.0000465)">
      <path
         inkscape:connector-curvature="0"
         id="path3945"
         d="m 52.652557,980.45112 c -1.465865,0.0533 -2.962361,0.76754 -4.218679,2.1147 -1.828919,1.94231 -4.262534,7.72956 -4.96819,14.58335 -0.192673,1.87135 -0.306306,3.22523 -0.342634,5.02173 -0.06005,6.6231 0.764588,19.1364 5.894372,29.5843 -0.01131,-0.028 -0.251046,-3.2646 -0.262329,-3.2925 -3.483212,-8.6127 -5.402041,-20.3493 -4.518483,-29.22026 0.12733,-1.52534 0.278195,-2.45128 0.49789,-3.99917 0.802294,-5.65265 2.864728,-10.56541 4.384642,-12.17957 2.105392,-2.34691 5.130292,-2.53464 7.098944,-0.16596 0.8329,0.8848 1.197926,2.06789 1.242047,3.21755 -0.190038,3.68418 -4.103344,5.97592 -8.432003,3.58694 3.776062,3.64608 8.947487,0.89977 9.176161,-3.53341 -0.0531,-1.38339 -0.507501,-2.81136 -1.50973,-3.87604 -1.142955,-1.28677 -2.576144,-1.89495 -4.042008,-1.84166 z"
         style="fill:#2d5185;fill-opacity:1;stroke:#3662a1;stroke-width:0.17131691;stroke-linecap:butt;stroke-linejoin:miter;stroke-miterlimit:4;stroke-opacity:1;stroke-dasharray:none;marker-end:none" />
      <g
         transform="matrix(0.1713169,0,0,0.1713169,-34.326812,876.25052)"
         id="g3947"
         style="fill:#2d5185;fill-opacity:1;stroke:#3662a1;stroke-opacity:1">
        <path
           inkscape:connector-curvature="0"
           id="path3949"
           d="m 512.63567,961.03406 c -14.39124,-12.84152 -20.91415,-28.05795 -25.15488,-47.732 -10.96223,-50.85713 14.90052,-95.6864 56.16623,-106.35652 14.73555,-3.81019 34.82516,-2.69147 52.15348,2.34709 13.26761,3.85785 18.97592,4.11046 37.15853,16.33269 16.48832,12.68503 19.48274,14.57349 22.31276,24.07541 4.04425,13.57876 0.73377,20.66874 -9.50244,31.06427 -7.89752,8.02044 -23.63642,14.58146 -55.48732,13.74313 -26.10685,-0.68718 -44.52082,2.74418 -55.23451,9.38723 -10.23364,6.3454 -3.03083,35.17072 11.98459,32.11229 3.23286,-0.65849 5.02211,-1.67354 6.19998,-2.53345 2.94688,-2.15138 3.23152,-2.68096 8.71855,-8.64258 2.88477,-3.13428 6.98765,-5.68265 8.60353,-6.23078 5.85371,-1.98561 17.26065,1.00364 26.59964,7.23918 7.95429,5.31039 8.77632,7.65069 9.9471,13.08233 1.05506,4.89479 -3.49791,10.26106 -6.31127,12.75177 -8.77304,7.76692 -20.02935,14.0487 -38.2741,18.18092 -11.21951,2.54109 -12.03417,1.88353 -26.25672,0.4352 -9.09019,-0.92568 -18.74443,-4.01048 -23.62315,-9.25618 l 0,0 z"
           style="fill:#2d5185;fill-opacity:1;stroke:#3662a1;stroke-width:1;stroke-miterlimit:4;stroke-opacity:1;stroke-dasharray:none"
           sodipodi:nodetypes="cssscsssssssssssssc" />
        <path
           inkscape:connector-curvature="0"
           id="path3951"
           d="m 534.06358,779.9925 c -0.91804,-8.74147 1.94229,-21.89086 5.72142,-26.30256 3.40156,-3.97067 15.42955,-4.36858 19.29449,-0.63808 6.22665,6.01005 3.08417,20.54011 -6.96415,32.20022 -9.98895,11.59117 -16.4808,9.69973 -18.05176,-5.25958 z"
           style="fill:#2d5185;fill-opacity:1;stroke:#3662a1;stroke-width:1;stroke-miterlimit:4;stroke-opacity:1;stroke-dasharray:none"
           sodipodi:nodetypes="csssc" />
        <path
           inkscape:connector-curvature="0"
           id="path3953"
           d="m 654.63716,823.84985 c -5.01846,-9.55043 7.71351,-26.90551 22.67525,-37.33338 16.65019,-11.60451 33.75549,-14.75441 51.27771,-5.45124 14.21549,7.54757 18.11282,18.54222 9.86273,27.82385 -11.82968,13.30881 -43.5853,25.52609 -62.75572,24.1439 -12.36278,-0.89139 -17.99289,-3.34637 -21.05997,-9.18313 z"
           style="fill:#2d5185;fill-opacity:1;stroke:#3662a1;stroke-width:1.01529181;stroke-miterlimit:4;stroke-opacity:1;stroke-dasharray:none"
           sodipodi:nodetypes="cssssc" />
        <path
           inkscape:connector-curvature="0"
           id="path3955"
           d="m 577.09792,781.93313 c -2.02156,-5.32248 0.34242,-20.84236 4.35497,-28.59098 4.55992,-8.80568 13.96409,-14.00516 21.37491,-11.81802 12.27086,3.62151 12.20572,13.08077 1.2187,29.45271 -11.2491,16.7625 -22.64233,22.29384 -26.94858,10.95629 z"
           style="fill:#2d5185;fill-opacity:1;stroke:#3662a1;stroke-width:1;stroke-miterlimit:4;stroke-opacity:1;stroke-dasharray:none"
           sodipodi:nodetypes="csssc" />
        <path
           inkscape:connector-curvature="0"
           id="path3957"
           d="m 619.04751,790.90645 c -4.30874,-16.49729 16.71968,-46.19491 31.38841,-44.58403 13.97846,1.53507 19.61316,13.04263 12.56416,25.65952 -5.0951,9.11966 -23.80777,23.5191 -33.15259,24.94999 -8.25642,1.26425 -9.00516,0.84652 -10.79998,-6.02548 z"
           style="fill:#2d5185;fill-opacity:1;stroke:#3662a1;stroke-width:1.01097834;stroke-miterlimit:4;stroke-opacity:1;stroke-dasharray:none"
           sodipodi:nodetypes="cssss" />
      </g>
      <g
         transform="matrix(0.1713169,0,0,0.1713169,-34.326812,876.25052)"
         id="g3959"
         style="fill:#2d5185;fill-opacity:1;stroke:#3662a1;stroke-opacity:1">
        <path
           inkscape:connector-curvature="0"
           id="path3961"
           d="m 487.04378,975.82597 c 4.76715,-18.08831 2.03654,-33.92339 -4.83072,-52.16797 -17.75177,-47.16196 -61.67,-69.84581 -100.06293,-56.57778 -13.70971,4.73788 -29.11416,16.32831 -40.28065,29.63643 -8.54973,10.18951 -12.96076,13.4298 -21.06739,33.03058 -6.51742,19.0761 -7.91722,22.20299 -5.22276,31.43023 3.85052,13.18623 10.17583,17.18842 23.73328,20.19492 10.45994,2.31959 26.40013,-0.71604 51.3099,-18.3318 20.41748,-14.43893 36.85718,-21.44043 48.84113,-21.73759 11.44698,-0.28385 20.72107,26.9732 7.18,32.47085 -2.91544,1.18366 -4.8677,1.31 -6.25267,1.23736 -3.46503,-0.18172 -3.96723,-0.46079 -11.43718,-2.3887 -3.92727,-1.01358 -8.51888,-0.90333 -10.09011,-0.4897 -5.69191,1.49851 -13.21313,9.99281 -17.39878,20.02601 -3.56535,8.54499 -3.00118,10.88419 -1.10525,15.92119 1.70854,4.5391 8.12526,6.4798 11.66069,7.0083 11.02468,1.648 23.25236,0.7688 39.92225,-5.5732 10.25107,-3.8999 10.55704,-4.8674 21.12103,-13.60637 6.75187,-5.58538 12.8286,-13.22547 13.98016,-20.08276 l 0,0 z"
           style="fill:#2d5185;fill-opacity:1;stroke:#3662a1;stroke-width:1;stroke-miterlimit:4;stroke-opacity:1;stroke-dasharray:none"
           sodipodi:nodetypes="cssscsssssssssssssc" />
        <path
           inkscape:connector-curvature="0"
           id="path3963"
           d="m 372.72324,841.91661 c -3.81978,-7.8178 -12.94055,-17.25588 -18.24411,-18.87891 -4.77355,-1.46065 -14.5515,4.79102 -15.68501,10.0287 -1.82616,8.43821 8.23782,18.87724 22.30293,23.134 13.98199,4.23157 18.16306,-0.9052 11.62619,-14.28379 l 0,0 z"
           style="fill:#2d5185;fill-opacity:1;stroke:#3662a1;stroke-width:0.97511619;stroke-miterlimit:4;stroke-opacity:1;stroke-dasharray:none"
           sodipodi:nodetypes="csssc" />
        <path
           inkscape:connector-curvature="0"
           id="path3965"
           d="m 303.64288,942.60966 c -0.97813,-10.73952 -20.14311,-18.29292 -37.47646,-18.82867 -19.28936,-0.59607 -34.5399,6.13218 -43.63988,23.50991 -7.38263,14.09832 -4.76064,25.43267 6.63551,28.68346 16.34077,4.66126 47.96868,-2.49927 62.50333,-14.15069 9.37321,-7.5139 12.57525,-12.6505 11.9775,-19.21401 l 0,0 z"
           style="fill:#2d5185;fill-opacity:1;stroke:#3662a1;stroke-width:0.99002749;stroke-miterlimit:4;stroke-opacity:1;stroke-dasharray:none"
           sodipodi:nodetypes="cssssc" />
        <path
           inkscape:connector-curvature="0"
           id="path3967"
           d="m 340.49847,868.10756 c -1.16197,-5.56076 -11.12172,-17.2543 -18.34802,-21.54201 -8.21208,-4.87266 -18.40163,-4.07553 -23.16002,1.81178 -7.87893,9.74825 -2.90318,17.62849 14.36156,25.31442 17.67658,7.86929 29.62159,6.26098 27.14648,-5.58419 z"
           style="fill:#2d5185;fill-opacity:1;stroke:#3662a1;stroke-width:0.97511619;stroke-miterlimit:4;stroke-opacity:1;stroke-dasharray:none"
           sodipodi:nodetypes="csssc" />
        <path
           inkscape:connector-curvature="0"
           id="path3969"
           d="m 312.29365,898.56589 c -5.15897,-16.16442 -37.35031,-29.50472 -48.18387,-20.12634 -10.32377,8.93705 -8.81723,21.65174 3.35933,28.35114 8.80137,4.84242 31.18674,6.64831 39.36736,2.72997 7.22783,-3.46196 7.60616,-4.22143 5.45718,-10.95477 l 0,0 z"
           style="fill:#2d5185;fill-opacity:1;stroke:#3662a1;stroke-width:0.98582137;stroke-miterlimit:4;stroke-opacity:1;stroke-dasharray:none"
           sodipodi:nodetypes="cssss" />
      </g>
      <path
         inkscape:connector-curvature="0"
         id="path3971"
         d="m 18.95131,998.14495 c -2.865169,-0.0407 -5.596128,1.63268 -6.08175,4.54525 -0.06831,0.4096 -0.199166,1.4314 -0.08566,1.9059 0.0451,0.6987 0.392384,1.7783 0.840523,2.3824 2.948265,3.9744 8.161383,2.4415 9.42243,-0.8566 0.100813,-0.2637 0.218876,-0.5578 0.342633,-1.3009 0.105324,-0.6325 0.02904,-1.095 0.03212,-1.2207 -0.04603,0.2429 -0.361855,1.3473 -0.765572,2.2593 -1.210088,2.7333 -5.680055,4.0986 -8.009065,1.151 -0.528064,-0.6683 -0.954527,-1.306 -1.102853,-2.4252 -0.110014,-0.46 0.04327,-1.5137 0.133842,-1.9059 0.739129,-3.20042 3.910107,-4.23585 7.072175,-3.23897 2.805034,0.80257 6.993907,3.91767 12.083196,9.47057 1.249421,1.3633 2.311222,2.6519 3.115826,3.6459 3.769254,4.9952 7.350705,11.1162 8.683625,15.9271 l 1.199219,1.408 0.224853,0.2623 c -0.884141,-4.7356 -5.080778,-12.8773 -9.727588,-18.529 -0.830135,-1.0255 -1.92848,-2.3517 -3.217545,-3.7582 -5.25078,-5.7292 -9.670985,-8.69081 -12.565024,-9.51882 -0.526372,-0.12807 -1.064802,-0.19589 -1.595389,-0.20343 z"
         style="fill:#2d5185;fill-opacity:1;stroke:#3662a1;stroke-width:0.17131691;stroke-linecap:butt;stroke-linejoin:miter;stroke-miterlimit:4;stroke-opacity:1;stroke-dasharray:none" />
    </g>
    <text
       xml:space="preserve"
       style="font-size:26.42553329px;font-style:normal;font-variant:normal;font-weight:normal;font-stretch:normal;line-height:125%;letter-spacing:0px;word-spacing:0px;fill:#2d5185;fill-opacity:1;stroke:#2d5185;stroke-width:1.15508485;stroke-opacity:1;font-family:NanumGothic;-inkscape-font-specification:NanumGothic"
       x="95.132401"
       y="1021.4105"
       id="text3891"
       sodipodi:linespacing="125%"><tspan
         sodipodi:role="line"
         id="tspan3893"
         x="95.132401"
         y="1021.4105"
         style="font-style:normal;font-variant:normal;font-weight:bold;font-stretch:normal;fill:#2d5185;fill-opacity:1;stroke:#2d5185;stroke-width:1.15508485;stroke-opacity:1;font-family:Cantarell;-inkscape-font-specification:Cantarell Bold">北京GNOME用户组</tspan></text>
    <text
       xml:space="preserve"
       style="font-size:19.00078011px;font-style:normal;font-variant:normal;font-weight:normal;font-stretch:normal;line-height:125%;letter-spacing:0px;word-spacing:0px;fill:#2d5185;fill-opacity:1;stroke:#2d5185;stroke-width:0.49340838;stroke-miterlimit:4;stroke-opacity:1;stroke-dasharray:none;font-family:NanumGothic;-inkscape-font-specification:NanumGothic"
       x="94.771408"
       y="1039.85"
       id="text3891-8"
       sodipodi:linespacing="125%"><tspan
         sodipodi:role="line"
         id="tspan3893-5"
         x="94.771408"
         y="1039.85"
         style="font-size:16.03577232px;font-style:normal;font-variant:normal;font-weight:bold;font-stretch:normal;letter-spacing:0px;fill:#2d5185;fill-opacity:1;stroke:#2d5185;stroke-width:0.49340838;stroke-miterlimit:4;stroke-opacity:1;stroke-dasharray:none;font-family:Cantarell;-inkscape-font-specification:Cantarell Bold">Beijing GNOME User Group</tspan></text>
  </g>
</svg>
