<?xml version="1.0" encoding="utf-8"?>
<!-- Generator: Adobe Illustrator 17.0.0, SVG Export Plug-In . SVG Version: 6.00 Build 0)  -->
<!DOCTYPE svg PUBLIC "-//W3C//DTD SVG 1.1//EN" "http://www.w3.org/Graphics/SVG/1.1/DTD/svg11.dtd">
<svg version="1.1" id="Layer_1" xmlns="http://www.w3.org/2000/svg" xmlns:xlink="http://www.w3.org/1999/xlink" x="0px" y="0px"
	 width="143px" height="63px" viewBox="0 0 143 63" style="enable-background:new 0 0 143 63;" xml:space="preserve">
<style type="text/css">
	.st0{fill:#999999;}
	.st1{fill:#349334;}
	.st2{fill:url(#SVGID_1_);}
	.st3{fill:#FFFFFF;}
	.st4{fill:#118011;}
	.st5{fill:url(#SVGID_2_);}
	.st6{fill:#3CCE33;}
	.st7{fill:url(#SVGID_3_);}
	.st8{fill:#333333;}
	.st9{opacity:0.1;}
	.st10{fill:url(#SVGID_4_);}
</style>
<g>
	<g>
		<path class="st0" d="M55.283,59.572v-0.343c-0.243,0.275-0.593,0.418-0.999,0.418c-0.506,0-1.048-0.343-1.048-0.999
			c0-0.68,0.537-0.992,1.048-0.992c0.412,0,0.755,0.131,0.999,0.406v-0.543c0-0.399-0.325-0.63-0.761-0.63
			c-0.362,0-0.655,0.125-0.924,0.418l-0.218-0.325c0.325-0.337,0.711-0.499,1.205-0.499c0.643,0,1.167,0.287,1.167,1.017v2.072
			H55.283z M55.283,58.935v-0.574c-0.181-0.243-0.499-0.368-0.824-0.368c-0.443,0-0.749,0.275-0.749,0.655
			c0,0.387,0.306,0.662,0.749,0.662C54.783,59.31,55.102,59.185,55.283,58.935z"/>
		<path class="st0" d="M58.309,59.572v-4.163h0.468v4.163H58.309z"/>
		<path class="st0" d="M59.539,58.061c0-0.874,0.574-1.579,1.492-1.579s1.492,0.705,1.492,1.579c0,0.874-0.574,1.585-1.492,1.585
			S59.539,58.935,59.539,58.061z M62.029,58.061c0-0.612-0.356-1.161-0.999-1.161c-0.643,0-0.999,0.549-0.999,1.161
			c0,0.618,0.356,1.167,0.999,1.167C61.673,59.228,62.029,58.679,62.029,58.061z"/>
		<path class="st0" d="M65.324,59.572V57.6c0-0.537-0.275-0.699-0.68-0.699c-0.368,0-0.711,0.225-0.892,0.468v2.203h-0.468v-3.014
			h0.468v0.437c0.212-0.256,0.624-0.512,1.08-0.512c0.624,0,0.955,0.318,0.955,0.974v2.116H65.324z"/>
		<path class="st0" d="M68.913,59.572v-0.449c-0.225,0.306-0.593,0.524-1.017,0.524c-0.786,0-1.342-0.599-1.342-1.579
			c0-0.967,0.555-1.585,1.342-1.585c0.406,0,0.774,0.2,1.017,0.53v-1.604h0.468v4.163H68.913z M68.913,58.748v-1.361
			c-0.162-0.262-0.53-0.487-0.899-0.487c-0.612,0-0.974,0.499-0.974,1.167c0,0.668,0.362,1.161,0.974,1.161
			C68.382,59.228,68.75,59.01,68.913,58.748z"/>
		<path class="st0" d="M70.142,58.061c0-0.874,0.574-1.579,1.492-1.579s1.492,0.705,1.492,1.579c0,0.874-0.574,1.585-1.492,1.585
			S70.142,58.935,70.142,58.061z M72.632,58.061c0-0.612-0.356-1.161-0.999-1.161c-0.643,0-0.999,0.549-0.999,1.161
			c0,0.618,0.356,1.167,0.999,1.167C72.276,59.228,72.632,58.679,72.632,58.061z"/>
		<path class="st0" d="M75.927,59.572V57.6c0-0.537-0.275-0.699-0.68-0.699c-0.368,0-0.711,0.225-0.892,0.468v2.203h-0.468v-3.014
			h0.468v0.437c0.212-0.256,0.624-0.512,1.08-0.512c0.624,0,0.955,0.318,0.955,0.974v2.116H75.927z"/>
		<path class="st0" d="M77.412,58.76v-1.373h-0.499v-0.83h0.499v-0.824h0.961v0.824h0.612v0.83h-0.612v1.105
			c0,0.175,0.1,0.306,0.262,0.306c0.106,0,0.212-0.037,0.243-0.075l0.187,0.724c-0.119,0.112-0.356,0.2-0.711,0.2
			C77.743,59.647,77.412,59.341,77.412,58.76z"/>
		<path class="st0" d="M79.459,59.572v-3.014h0.961v0.368c0.2-0.243,0.587-0.449,0.942-0.449V57.4
			c-0.056-0.019-0.137-0.025-0.237-0.025c-0.25,0-0.58,0.106-0.705,0.275v1.922H79.459z"/>
		<path class="st0" d="M83.834,59.572V59.21c-0.187,0.212-0.53,0.437-1.042,0.437c-0.68,0-0.992-0.393-0.992-0.942v-2.147h0.961
			v1.747c0,0.368,0.187,0.493,0.499,0.493c0.275,0,0.462-0.15,0.574-0.293v-1.947h0.961v3.014H83.834z"/>
		<path class="st0" d="M85.238,59.179l0.399-0.687c0.225,0.2,0.705,0.406,1.061,0.406c0.287,0,0.406-0.081,0.406-0.212
			c0-0.374-1.754,0.012-1.754-1.211c0-0.53,0.462-0.992,1.292-0.992c0.512,0,0.936,0.162,1.261,0.399l-0.368,0.68
			c-0.181-0.175-0.524-0.331-0.886-0.331c-0.225,0-0.374,0.087-0.374,0.206c0,0.331,1.747-0.012,1.747,1.223
			c0,0.574-0.506,0.986-1.367,0.986C86.112,59.647,85.557,59.466,85.238,59.179z"/>
		<path class="st0" d="M88.714,58.76v-1.373h-0.499v-0.83h0.499v-0.824h0.961v0.824h0.612v0.83h-0.612v1.105
			c0,0.175,0.1,0.306,0.262,0.306c0.106,0,0.212-0.037,0.243-0.075l0.187,0.724c-0.119,0.112-0.356,0.2-0.711,0.2
			C89.045,59.647,88.714,59.341,88.714,58.76z"/>
		<path class="st0" d="M94.518,59.572v-2.047c0-0.381-0.162-0.624-0.555-0.624c-0.312,0-0.643,0.218-0.799,0.462v2.209h-0.468
			v-2.047c0-0.381-0.156-0.624-0.555-0.624c-0.306,0-0.63,0.225-0.793,0.468v2.203H90.88v-3.014h0.468v0.437
			c0.131-0.193,0.53-0.512,0.98-0.512c0.456,0,0.718,0.25,0.805,0.562c0.168-0.275,0.574-0.562,1.011-0.562
			c0.549,0,0.843,0.306,0.843,0.911v2.178H94.518z"/>
		<path class="st0" d="M95.748,58.061c0-0.874,0.624-1.579,1.485-1.579c0.911,0,1.448,0.711,1.448,1.616v0.119h-2.434
			c0.037,0.568,0.431,1.042,1.08,1.042c0.35,0,0.693-0.137,0.936-0.387l0.225,0.306c-0.306,0.3-0.711,0.468-1.198,0.468
			C96.391,59.647,95.748,59.004,95.748,58.061z M97.227,56.869c-0.643,0-0.961,0.543-0.986,0.999h1.978
			C98.213,57.425,97.913,56.869,97.227,56.869z"/>
		<path class="st0" d="M101.62,59.572v-0.449c-0.225,0.306-0.593,0.524-1.017,0.524c-0.786,0-1.342-0.599-1.342-1.579
			c0-0.967,0.555-1.585,1.342-1.585c0.406,0,0.774,0.2,1.017,0.53v-1.604h0.468v4.163H101.62z M101.62,58.748v-1.361
			c-0.162-0.262-0.53-0.487-0.899-0.487c-0.612,0-0.974,0.499-0.974,1.167c0,0.668,0.362,1.161,0.974,1.161
			C101.09,59.228,101.458,59.01,101.62,58.748z"/>
		<path class="st0" d="M102.943,55.815c0-0.175,0.144-0.318,0.318-0.318c0.175,0,0.312,0.144,0.312,0.318
			c0,0.175-0.137,0.312-0.312,0.312C103.087,56.127,102.943,55.989,102.943,55.815z M103.024,59.572v-3.014h0.468v3.014H103.024z"/>
		<path class="st0" d="M106.313,59.572v-0.343c-0.243,0.275-0.593,0.418-0.999,0.418c-0.506,0-1.048-0.343-1.048-0.999
			c0-0.68,0.537-0.992,1.048-0.992c0.412,0,0.755,0.131,0.999,0.406v-0.543c0-0.399-0.325-0.63-0.761-0.63
			c-0.362,0-0.655,0.125-0.924,0.418l-0.218-0.325c0.325-0.337,0.711-0.499,1.205-0.499c0.643,0,1.167,0.287,1.167,1.017v2.072
			H106.313z M106.313,58.935v-0.574c-0.181-0.243-0.499-0.368-0.824-0.368c-0.443,0-0.749,0.275-0.749,0.655
			c0,0.387,0.306,0.662,0.749,0.662C105.814,59.31,106.132,59.185,106.313,58.935z"/>
		<path class="st0" d="M109.165,58.061c0-0.892,0.605-1.579,1.504-1.579c0.549,0,0.874,0.225,1.105,0.524l-0.312,0.281
			c-0.2-0.275-0.456-0.387-0.768-0.387c-0.637,0-1.042,0.493-1.042,1.161c0,0.668,0.406,1.167,1.042,1.167
			c0.312,0,0.568-0.125,0.768-0.393l0.312,0.287c-0.231,0.3-0.555,0.524-1.105,0.524C109.771,59.647,109.165,58.954,109.165,58.061z
			"/>
		<path class="st0" d="M112.261,58.061c0-0.874,0.574-1.579,1.492-1.579c0.917,0,1.492,0.705,1.492,1.579
			c0,0.874-0.574,1.585-1.492,1.585C112.835,59.647,112.261,58.935,112.261,58.061z M114.751,58.061
			c0-0.612-0.356-1.161-0.999-1.161c-0.643,0-0.999,0.549-0.999,1.161c0,0.618,0.356,1.167,0.999,1.167
			C114.395,59.228,114.751,58.679,114.751,58.061z"/>
		<path class="st0" d="M119.644,59.572v-2.047c0-0.381-0.162-0.624-0.555-0.624c-0.312,0-0.643,0.218-0.799,0.462v2.209h-0.468
			v-2.047c0-0.381-0.156-0.624-0.555-0.624c-0.306,0-0.63,0.225-0.793,0.468v2.203h-0.468v-3.014h0.468v0.437
			c0.131-0.193,0.53-0.512,0.98-0.512c0.456,0,0.718,0.25,0.805,0.562c0.169-0.275,0.574-0.562,1.011-0.562
			c0.549,0,0.843,0.306,0.843,0.911v2.178H119.644z"/>
		<path class="st0" d="M121.516,59.116v1.604h-0.468v-4.163h0.468v0.449c0.218-0.306,0.593-0.524,1.017-0.524
			c0.793,0,1.342,0.599,1.342,1.579c0,0.974-0.549,1.585-1.342,1.585C122.121,59.647,121.765,59.447,121.516,59.116z
			 M123.382,58.061c0-0.668-0.362-1.161-0.967-1.161c-0.368,0-0.736,0.218-0.899,0.481v1.361c0.162,0.262,0.53,0.487,0.899,0.487
			C123.02,59.228,123.382,58.729,123.382,58.061z"/>
		<path class="st0" d="M126.502,59.572v-0.343c-0.243,0.275-0.593,0.418-0.999,0.418c-0.506,0-1.048-0.343-1.048-0.999
			c0-0.68,0.537-0.992,1.048-0.992c0.412,0,0.755,0.131,0.999,0.406v-0.543c0-0.399-0.325-0.63-0.761-0.63
			c-0.362,0-0.655,0.125-0.924,0.418l-0.218-0.325c0.325-0.337,0.711-0.499,1.205-0.499c0.643,0,1.167,0.287,1.167,1.017v2.072
			H126.502z M126.502,58.935v-0.574c-0.181-0.243-0.499-0.368-0.824-0.368c-0.443,0-0.749,0.275-0.749,0.655
			c0,0.387,0.306,0.662,0.749,0.662C126.003,59.31,126.321,59.185,126.502,58.935z"/>
		<path class="st0" d="M129.953,59.572V57.6c0-0.537-0.275-0.699-0.68-0.699c-0.368,0-0.711,0.225-0.892,0.468v2.203h-0.468v-3.014
			h0.468v0.437c0.212-0.256,0.624-0.512,1.08-0.512c0.624,0,0.955,0.318,0.955,0.974v2.116H129.953z"/>
		<path class="st0" d="M131.264,60.327c0.069,0.031,0.181,0.05,0.256,0.05c0.206,0,0.343-0.069,0.449-0.318l0.2-0.456l-1.261-3.046
			h0.512l0.999,2.471l1.005-2.471h0.506l-1.51,3.626c-0.181,0.437-0.487,0.605-0.886,0.612c-0.1,0-0.256-0.019-0.337-0.044
			L131.264,60.327z"/>
	</g>
	<g>
		<g>
			<g>
				<g>
					<path class="st1" d="M89.408,11.012c2.184-1.094,4.886-1.016,7.074,0.441c3.242,2.157,4.131,6.52,1.986,9.744l-0.432,0.65
						l0.726,0.483c0.762,0.507,0.971,1.531,0.467,2.29l-3.566,5.359c-0.239,0.356-0.433,0.601-0.698,0.697
						c-0.271,0.094-0.559-0.001-0.922-0.243l-1.167-0.777l-2.056,2.704c-0.005,0.007-0.011,0.018-0.021,0.032
						c-0.05,0.075-0.173,0.241-0.377,0.342c-0.204,0.104-0.499,0.122-0.813-0.091l-0.199-0.133V11.012z"/>
					
						<radialGradient id="SVGID_1_" cx="113.9399" cy="-394.4302" r="9.9649" gradientTransform="matrix(-0.8325 -0.554 -0.554 0.8325 -33.1233 411.902)" gradientUnits="userSpaceOnUse">
						<stop  offset="0" style="stop-color:#23FF16"/>
						<stop  offset="0.3605" style="stop-color:#23FC16"/>
						<stop  offset="0.581" style="stop-color:#21F415"/>
						<stop  offset="0.7638" style="stop-color:#1FE613"/>
						<stop  offset="0.9251" style="stop-color:#1CD110"/>
						<stop  offset="1" style="stop-color:#1AC50F"/>
					</radialGradient>
					<path class="st2" d="M89.408,11.263c2.133-1.113,4.796-1.057,6.953,0.372c3.137,2.095,3.996,6.311,1.923,9.438l-0.554,0.832
						l0.91,0.606c0.66,0.441,0.841,1.327,0.405,1.985l-3.566,5.359c-0.232,0.351-0.415,0.554-0.589,0.612
						c-0.168,0.06-0.377,0.013-0.726-0.219l-1.339-0.891l-2.19,2.877l-0.004,0.007c0,0-0.004,0.008-0.016,0.025
						c-0.037,0.058-0.145,0.195-0.292,0.267c-0.149,0.069-0.329,0.096-0.593-0.077l-0.321-0.214V11.263z"/>
					<polygon class="st3" points="89.408,26.871 92.71,29.069 92.47,29.429 89.408,27.392 					"/>
					<polygon class="st4" points="92.808,29.321 97.412,22.402 97.228,22.28 92.624,29.199 92.808,29.321 					"/>
					
						<linearGradient id="SVGID_2_" gradientUnits="userSpaceOnUse" x1="112.5785" y1="-393.9228" x2="112.5785" y2="-395.5084" gradientTransform="matrix(-0.8325 -0.554 -0.554 0.8325 -33.1233 411.902)">
						<stop  offset="0" style="stop-color:#23FF16"/>
						<stop  offset="1" style="stop-color:#91FF8A"/>
					</linearGradient>
					<path class="st5" d="M89.408,18.3c0.574,0.309,1.205,0.688,1.854,1.119c2.185,1.454,3.74,2.957,3.474,3.357
						c-0.266,0.4-2.253-0.454-4.438-1.908c-0.31-0.207-0.608-0.414-0.89-0.619V18.3z"/>
					<path class="st3" d="M89.408,14.327c1.41-1.605,3.825-1.959,5.653-0.743c1.993,1.326,2.533,4.017,1.207,6.01l-0.704,1.058
						l-6.157-4.097V14.327z"/>
					<circle cx="94.952" cy="16.355" r="0.801"/>
					<circle cx="92.575" cy="14.773" r="0.801"/>
					<polygon class="st3" points="89.408,22.355 90.576,23.133 89.408,24.889 					"/>
					<path class="st3" d="M89.408,20.979c0.242,0.01,0.482,0.083,0.698,0.227c0.557,0.371,0.75,1.079,0.511,1.689l-0.287-0.191
						c0.145-0.454-0.009-0.955-0.407-1.222c-0.158-0.105-0.335-0.16-0.514-0.169V20.979z"/>
					<path class="st6" d="M92.874,29.654l1.167,0.777c0.181,0.121,0.342,0.204,0.493,0.247l-0.156,0.235
						c-0.079-0.04-0.162-0.09-0.25-0.148l-1.168-0.777l-0.891,1.171l-0.225-0.15L92.874,29.654z"/>
					
						<linearGradient id="SVGID_3_" gradientUnits="userSpaceOnUse" x1="108.0239" y1="-389.5387" x2="105.3447" y2="-386.5667" gradientTransform="matrix(-0.8325 -0.554 -0.554 0.8325 -33.1233 411.902)">
						<stop  offset="0" style="stop-color:#23FF16"/>
						<stop  offset="1" style="stop-color:#189A33"/>
					</linearGradient>
					<path class="st7" d="M94.128,30.765c0.088,0.059,0.171,0.108,0.25,0.148l-0.068,0.101c-0.417,0.626-1.256,0.8-1.874,0.388
						l-0.367-0.244l0.891-1.171L94.128,30.765z"/>
					<path d="M94.222,18.279c-1.437-0.039-2.729-0.881-3.347-2.178c0.125-0.06,0.251-0.119,0.376-0.179
						c0.55,1.156,1.702,1.906,2.982,1.94C94.23,18.001,94.226,18.14,94.222,18.279z"/>
				</g>
			</g>
			<path class="st8" d="M49.485,35.65V4.213h16.779c7.353,0,11.311,4.902,11.311,10.793c0,5.844-3.959,10.746-11.311,10.746h-7.258
				v9.898H49.485z M67.914,15.007c0-1.697-1.273-2.498-2.875-2.498h-6.033v4.949h6.033C66.641,17.457,67.914,16.656,67.914,15.007z"
				/>
			<path class="st8" d="M81.504,35.65V4.213h9.521V35.65H81.504z"/>
			<path class="st8" d="M121.829,35.65l-1.131-3.676h-11.312l-1.131,3.676H97.462l11.595-31.437h11.972l11.594,31.437H121.829z
				 M115.042,13.545l-3.111,10.133h6.221L115.042,13.545z"/>
		</g>
		<g>
			<g class="st9">
				<circle cx="21.398" cy="21.33" r="17.116"/>
			</g>
			<g>
				<linearGradient id="SVGID_4_" gradientUnits="userSpaceOnUse" x1="20.0354" y1="2.5788" x2="20.0354" y2="36.8116">
					<stop  offset="0" style="stop-color:#96EF75"/>
					<stop  offset="0.1827" style="stop-color:#52F752"/>
					<stop  offset="0.5169" style="stop-color:#1BC91B"/>
					<stop  offset="1" style="stop-color:#047204"/>
				</linearGradient>
				<circle class="st10" cx="20.035" cy="19.695" r="17.116"/>
				<path class="st3" d="M20.035,37.422c-2.393,0-4.714-0.469-6.9-1.393c-2.111-0.893-4.007-2.171-5.635-3.799
					c-1.628-1.628-2.906-3.524-3.799-5.634c-0.925-2.186-1.393-4.507-1.393-6.9c0-2.393,0.469-4.714,1.393-6.9
					c0.893-2.111,2.171-4.007,3.799-5.635c1.628-1.628,3.524-2.906,5.635-3.799c2.186-0.925,4.507-1.393,6.9-1.393
					s4.714,0.469,6.9,1.393c2.111,0.893,4.007,2.171,5.634,3.799c1.628,1.628,2.906,3.524,3.799,5.635
					c0.925,2.186,1.393,4.507,1.393,6.9c0,2.393-0.469,4.714-1.393,6.9c-0.893,2.111-2.171,4.007-3.799,5.634
					c-1.628,1.628-3.524,2.906-5.634,3.799C24.75,36.953,22.428,37.422,20.035,37.422z M20.035,3.189
					c-2.229,0-4.39,0.436-6.425,1.297C11.645,5.317,9.88,6.508,8.364,8.024c-1.516,1.516-2.706,3.281-3.538,5.247
					c-0.861,2.035-1.297,4.196-1.297,6.425s0.436,4.39,1.297,6.425c0.831,1.965,2.022,3.731,3.538,5.247
					c1.516,1.516,3.281,2.706,5.247,3.538c2.035,0.861,4.196,1.297,6.425,1.297s4.39-0.436,6.425-1.297
					c1.965-0.831,3.731-2.022,5.247-3.538c1.516-1.516,2.706-3.281,3.538-5.247c0.861-2.035,1.297-4.196,1.297-6.425
					s-0.436-4.39-1.297-6.425c-0.831-1.965-2.022-3.731-3.538-5.247c-1.516-1.516-3.281-2.706-5.247-3.538
					C24.426,3.626,22.264,3.189,20.035,3.189z"/>
			</g>
			<path class="st3" d="M26.366,17.041h-1.05v-1.714c0-2.837-2.376-5.146-5.213-5.146c-2.837,0-5.213,2.308-5.213,5.146v1.714
				h-1.158c-0.231,0-0.518,0.395-0.518,0.626v9.371c0,0.231,0.287,0.43,0.518,0.43h12.634c0.231,0,0.626-0.199,0.626-0.43v-9.371
				C26.991,17.436,26.597,17.041,26.366,17.041z M22.337,17.041h-4.468v-1.714c0-1.223,1.012-2.217,2.234-2.217
				c1.223,0,2.234,0.995,2.234,2.217V17.041z"/>
		</g>
		<g>
			<g>
				<path class="st8" d="M3.648,50.313v3.671H2.919v-9.345h0.729v1.065c0.476-0.687,1.345-1.233,2.354-1.233
					c1.807,0,3.026,1.373,3.026,3.545c0,2.158-1.219,3.559-3.026,3.559C5.049,51.574,4.194,51.083,3.648,50.313z M8.243,48.015
					c0-1.639-0.855-2.886-2.368-2.886c-0.939,0-1.835,0.56-2.228,1.205v3.348c0.392,0.644,1.289,1.233,2.228,1.233
					C7.388,50.915,8.243,49.654,8.243,48.015z"/>
				<path class="st8" d="M10.863,51.405v-6.767h0.729v1.163c0.574-0.757,1.345-1.303,2.284-1.303v0.799
					c-0.126-0.028-0.224-0.028-0.364-0.028c-0.687,0-1.611,0.616-1.919,1.205v4.932H10.863z"/>
				<path class="st8" d="M15.108,43.013c0-0.308,0.266-0.546,0.56-0.546c0.308,0,0.56,0.238,0.56,0.546
					c0,0.308-0.252,0.56-0.56,0.56C15.374,43.574,15.108,43.321,15.108,43.013z M15.304,51.405v-6.767h0.729v6.767H15.304z"/>
				<path class="st8" d="M20.123,51.405l-2.858-6.767h0.813l2.466,5.912l2.438-5.912h0.827l-2.858,6.767H20.123z"/>
				<path class="st8" d="M29.342,51.405v-0.799c-0.602,0.658-1.359,0.967-2.298,0.967c-1.163,0-2.368-0.799-2.368-2.256
					c0-1.471,1.191-2.242,2.368-2.242c0.939,0,1.709,0.308,2.298,0.967V46.67c0-1.009-0.813-1.555-1.807-1.555
					c-0.855,0-1.513,0.294-2.13,0.995l-0.406-0.504c0.701-0.757,1.485-1.135,2.606-1.135c1.373,0,2.466,0.658,2.466,2.172v4.764
					H29.342z M29.342,50.074v-1.485c-0.476-0.63-1.233-0.939-2.046-0.939c-1.107,0-1.849,0.715-1.849,1.681
					c0,0.953,0.743,1.667,1.849,1.667C28.109,50.999,28.865,50.691,29.342,50.074z"/>
				<path class="st8" d="M32.48,50.102v-4.82h-1.121v-0.644h1.121v-1.849h0.743v1.849h1.373v0.644h-1.373v4.708
					c0,0.546,0.224,0.925,0.701,0.925c0.322,0,0.602-0.154,0.757-0.322l0.28,0.56c-0.266,0.252-0.588,0.42-1.149,0.42
					C32.914,51.574,32.48,51.027,32.48,50.102z"/>
				<path class="st8" d="M35.814,48.015c0-1.961,1.373-3.545,3.25-3.545c2.06,0,3.194,1.625,3.194,3.587v0.196h-5.66
					c0.07,1.471,1.051,2.69,2.648,2.69c0.855,0,1.639-0.322,2.214-0.939l0.378,0.476c-0.673,0.701-1.527,1.093-2.648,1.093
					C37.215,51.574,35.814,50.102,35.814,48.015z M39.051,45.101c-1.597,0-2.396,1.401-2.452,2.578h4.918
					C41.502,46.53,40.746,45.101,39.051,45.101z"/>
				<path class="st8" d="M43.716,42.845c0-0.588,0.476-1.051,1.051-1.051c0.588,0,1.065,0.462,1.065,1.051s-0.476,1.065-1.065,1.065
					C44.192,43.91,43.716,43.433,43.716,42.845z M43.884,51.405v-6.767h1.779v6.767H43.884z"/>
				<path class="st8" d="M51.996,51.405v-4.091c0-0.939-0.49-1.261-1.247-1.261c-0.701,0-1.233,0.392-1.541,0.785v4.567h-1.779
					v-6.767h1.779v0.869c0.434-0.504,1.275-1.037,2.368-1.037c1.499,0,2.214,0.841,2.214,2.158v4.778H51.996z"/>
				<path class="st8" d="M55.904,49.71v-3.517h-1.121v-1.555h1.121v-1.849h1.779v1.849h1.373v1.555h-1.373v3.04
					c0,0.434,0.224,0.757,0.616,0.757c0.266,0,0.518-0.098,0.616-0.21l0.378,1.359c-0.266,0.238-0.743,0.434-1.485,0.434
					C56.563,51.574,55.904,50.929,55.904,49.71z"/>
				<path class="st8" d="M59.841,48.015c0-1.961,1.457-3.545,3.503-3.545c2.032,0,3.391,1.513,3.391,3.713v0.42h-5.03
					c0.126,0.827,0.799,1.513,1.947,1.513c0.574,0,1.359-0.238,1.793-0.659l0.799,1.177c-0.673,0.616-1.737,0.939-2.788,0.939
					C61.396,51.574,59.841,50.187,59.841,48.015z M63.344,45.927c-1.107,0-1.583,0.771-1.653,1.443h3.334
					C64.969,46.726,64.521,45.927,63.344,45.927z"/>
				<path class="st8" d="M68.023,51.405v-6.767h1.779v0.911c0.49-0.588,1.317-1.079,2.158-1.079v1.737
					c-0.126-0.028-0.28-0.042-0.49-0.042c-0.588,0-1.373,0.336-1.667,0.771v4.469H68.023z"/>
				<path class="st8" d="M77.634,51.405v-4.091c0-0.939-0.49-1.261-1.247-1.261c-0.701,0-1.233,0.392-1.541,0.785v4.567h-1.779
					v-6.767h1.779v0.869c0.434-0.504,1.275-1.037,2.368-1.037c1.499,0,2.214,0.841,2.214,2.158v4.778H77.634z"/>
				<path class="st8" d="M80.744,48.015c0-1.961,1.457-3.545,3.503-3.545c2.032,0,3.391,1.513,3.391,3.713v0.42h-5.03
					c0.126,0.827,0.799,1.513,1.947,1.513c0.574,0,1.359-0.238,1.793-0.659l0.799,1.177c-0.673,0.616-1.737,0.939-2.788,0.939
					C82.299,51.574,80.744,50.187,80.744,48.015z M84.247,45.927c-1.107,0-1.583,0.771-1.653,1.443h3.334
					C85.872,46.726,85.424,45.927,84.247,45.927z"/>
				<path class="st8" d="M89.29,49.71v-3.517H88.17v-1.555h1.121v-1.849h1.779v1.849h1.373v1.555H91.07v3.04
					c0,0.434,0.224,0.757,0.616,0.757c0.266,0,0.518-0.098,0.616-0.21l0.378,1.359c-0.266,0.238-0.743,0.434-1.485,0.434
					C89.949,51.574,89.29,50.929,89.29,49.71z"/>
				<path class="st8" d="M98.215,51.405v-0.799c-0.602,0.658-1.359,0.967-2.298,0.967c-1.163,0-2.368-0.799-2.368-2.256
					c0-1.471,1.191-2.242,2.368-2.242c0.939,0,1.709,0.308,2.298,0.967V46.67c0-1.009-0.813-1.555-1.807-1.555
					c-0.855,0-1.513,0.294-2.13,0.995l-0.406-0.504c0.701-0.757,1.485-1.135,2.606-1.135c1.373,0,2.466,0.658,2.466,2.172v4.764
					H98.215z M98.215,50.074v-1.485c-0.476-0.63-1.233-0.939-2.046-0.939c-1.107,0-1.849,0.715-1.849,1.681
					c0,0.953,0.743,1.667,1.849,1.667C96.982,50.999,97.739,50.691,98.215,50.074z"/>
				<path class="st8" d="M100.835,48.015c0-1.975,1.289-3.545,3.278-3.545c1.177,0,1.849,0.462,2.396,1.149l-0.504,0.448
					c-0.49-0.673-1.107-0.939-1.849-0.939c-1.583,0-2.55,1.261-2.55,2.886c0,1.625,0.967,2.9,2.55,2.9
					c0.743,0,1.359-0.28,1.849-0.953l0.504,0.448c-0.546,0.701-1.219,1.163-2.396,1.163
					C102.124,51.574,100.835,49.99,100.835,48.015z"/>
				<path class="st8" d="M107.756,48.015c0-1.975,1.289-3.545,3.278-3.545c1.177,0,1.849,0.462,2.396,1.149l-0.504,0.448
					c-0.49-0.673-1.107-0.939-1.849-0.939c-1.583,0-2.55,1.261-2.55,2.886c0,1.625,0.967,2.9,2.55,2.9
					c0.743,0,1.359-0.28,1.849-0.953l0.504,0.448c-0.546,0.701-1.219,1.163-2.396,1.163
					C109.045,51.574,107.756,49.99,107.756,48.015z"/>
				<path class="st8" d="M114.677,48.015c0-1.961,1.373-3.545,3.25-3.545c2.06,0,3.194,1.625,3.194,3.587v0.196h-5.66
					c0.07,1.471,1.051,2.69,2.648,2.69c0.855,0,1.639-0.322,2.214-0.939l0.378,0.476c-0.672,0.701-1.527,1.093-2.648,1.093
					C116.078,51.574,114.677,50.102,114.677,48.015z M117.913,45.101c-1.597,0-2.396,1.401-2.452,2.578h4.918
					C120.365,46.53,119.608,45.101,117.913,45.101z"/>
				<path class="st8" d="M122.41,50.495l0.434-0.532c0.434,0.546,1.233,0.995,2.186,0.995c1.135,0,1.807-0.588,1.807-1.373
					c0-1.849-4.273-0.799-4.273-3.236c0-1.037,0.883-1.877,2.41-1.877c1.163,0,1.933,0.448,2.424,0.995l-0.406,0.518
					c-0.392-0.532-1.121-0.897-2.018-0.897c-1.051,0-1.681,0.532-1.681,1.233c0,1.695,4.259,0.658,4.259,3.264
					c0,1.093-0.841,1.989-2.536,1.989C123.923,51.574,123.082,51.251,122.41,50.495z"/>
				<path class="st8" d="M128.841,50.495l0.434-0.532c0.434,0.546,1.233,0.995,2.186,0.995c1.135,0,1.807-0.588,1.807-1.373
					c0-1.849-4.273-0.799-4.273-3.236c0-1.037,0.883-1.877,2.41-1.877c1.163,0,1.933,0.448,2.424,0.995l-0.406,0.518
					c-0.392-0.532-1.121-0.897-2.018-0.897c-1.051,0-1.681,0.532-1.681,1.233c0,1.695,4.259,0.658,4.259,3.264
					c0,1.093-0.841,1.989-2.536,1.989C130.354,51.574,129.513,51.251,128.841,50.495z"/>
			</g>
			<g>
				<g>
					<path class="st8" d="M136.449,43.578v2.691h-0.388v-2.691h-0.86v-0.361h2.108v0.361H136.449z M140.389,46.269v-2.525
						l-1.04,2.525h-0.111l-1.04-2.525v2.525h-0.388v-3.052h0.596l0.888,2.219l0.888-2.219h0.596v3.052H140.389z"/>
				</g>
			</g>
		</g>
	</g>
</g>
</svg>
